<?xml version="1.0" standalone="no"?>
<!DOCTYPE svg PUBLIC "-//W3C//DTD SVG 20010904//EN"
 "http://www.w3.org/TR/2001/REC-SVG-20010904/DTD/svg10.dtd">
<svg version="1.0" xmlns="http://www.w3.org/2000/svg"
 width="500.000000pt" height="500.000000pt" viewBox="0 0 500.000000 500.000000"
 preserveAspectRatio="xMidYMid meet">
<metadata>
Created by potrace 1.11, written by Peter Selinger 2001-2013
</metadata>
<g transform="translate(0.000000,500.000000) scale(0.100000,-0.100000)"
fill="#000000" stroke="none">
<path d="M2019 4997 c0 -1 -2 -10 -4 -20 -2 -10 -20 -59 -39 -108 -20 -49 -36
-96 -36 -104 0 -8 -4 -15 -10 -15 -5 0 -9 -3 -8 -7 3 -11 -23 -86 -33 -97 -5
-6 -9 -16 -9 -24 0 -8 -15 -53 -33 -101 -61 -155 -89 -230 -89 -238 0 -4 -3
-12 -7 -18 -4 -5 -16 -37 -27 -70 -10 -33 -21 -62 -24 -65 -3 -3 -6 -9 -7 -15
-1 -5 -23 -66 -49 -135 -26 -69 -52 -141 -59 -160 -8 -19 -55 -145 -105 -280
-51 -135 -109 -292 -130 -350 -21 -58 -52 -140 -68 -182 -16 -42 -27 -80 -24
-83 3 -3 0 -5 -6 -5 -7 0 -12 -7 -12 -16 0 -8 -9 -36 -19 -62 -10 -26 -35 -90
-54 -142 -20 -52 -57 -151 -83 -220 -25 -69 -47 -129 -49 -135 -1 -5 -8 -23
-14 -40 -14 -32 -70 -183 -75 -200 -2 -5 -9 -23 -15 -40 -7 -16 -14 -34 -15
-40 -2 -5 -9 -23 -15 -40 -7 -16 -14 -38 -16 -48 -2 -9 -7 -23 -12 -30 -4 -6
-9 -19 -10 -28 -2 -14 46 -16 506 -16 l508 0 12 36 c7 20 16 45 21 56 7 16 72
212 84 250 30 101 51 162 59 173 5 6 6 12 3 12 -4 0 -2 9 4 21 6 11 13 28 15
37 2 9 33 105 69 212 37 107 68 202 70 210 2 8 29 89 60 180 31 91 56 165 56
165 -2 0 8 31 26 80 10 28 19 52 19 55 1 4 22 74 30 100 1 3 4 12 8 20 18 46
77 234 77 248 0 10 3 12 9 7 7 -7 296 -851 315 -920 2 -5 6 -17 9 -25 3 -8 49
-145 102 -305 52 -159 98 -297 102 -305 3 -8 7 -17 7 -20 5 -27 93 -276 99
-281 12 -8 1017 -7 1017 1 0 4 -9 29 -19 56 -40 103 -105 275 -286 759 -102
275 -207 554 -232 620 -24 66 -58 155 -74 198 -61 163 -89 236 -129 342 -23
61 -43 115 -45 120 -1 6 -5 17 -8 25 -18 45 -139 367 -141 375 -1 6 -21 60
-45 120 -24 61 -44 115 -46 120 -1 6 -5 19 -10 30 -4 11 -16 43 -26 70 -10 28
-37 98 -59 156 -22 58 -40 110 -40 116 0 6 -7 13 -15 17 -14 5 -954 8 -956 3z"/>
<path d="M2416 2456 c-7 -6 -19 -31 -26 -56 -8 -25 -20 -56 -27 -70 -7 -14
-13 -29 -13 -33 0 -5 -6 -23 -14 -40 -19 -45 -97 -254 -100 -269 -1 -7 -11
-31 -21 -53 -9 -22 -20 -69 -24 -105 l-6 -65 -50 -1 c-27 0 -57 -4 -65 -7 -27
-12 -205 -79 -215 -81 -5 -2 -17 -6 -25 -9 -46 -19 -258 -98 -272 -102 -22 -5
-62 -26 -68 -36 -4 -6 -5 -145 -1 -170 1 -7 9 -10 191 -78 74 -27 197 -72 272
-100 98 -37 151 -51 187 -51 l51 0 0 -53 c0 -37 12 -82 41 -157 22 -58 42
-113 44 -122 2 -9 8 -25 13 -35 5 -10 22 -54 37 -98 15 -44 31 -84 35 -90 4
-5 14 -35 24 -65 26 -85 24 -84 121 -84 48 -1 90 4 94 9 4 6 42 105 85 220 42
116 91 246 108 290 20 50 31 98 32 132 l1 53 48 0 c34 0 91 16 185 51 206 76
375 139 392 146 8 3 17 7 20 8 56 15 58 20 56 124 -1 54 -5 76 -16 82 -38 19
-102 45 -179 71 -46 15 -88 31 -95 35 -6 4 -15 8 -21 9 -10 2 -246 89 -275
101 -8 3 -37 7 -65 7 l-50 1 -1 50 c0 35 -16 92 -54 190 -29 77 -63 169 -77
205 -13 35 -38 103 -55 150 -18 47 -36 90 -40 95 -12 14 -166 14 -182 1z m182
-685 c29 -75 52 -147 52 -159 0 -16 6 -22 24 -22 13 0 45 -9 72 -19 46 -18 83
-32 94 -36 7 -2 35 -13 86 -33 40 -15 42 -18 40 -56 l-1 -40 -75 -28 c-41 -15
-81 -28 -87 -28 -7 0 -13 -4 -13 -8 0 -10 -96 -38 -122 -36 -12 1 -18 -6 -18
-21 0 -12 -14 -60 -31 -106 -17 -46 -39 -106 -49 -134 -18 -49 -19 -50 -64
-53 -30 -2 -46 1 -46 8 0 7 -7 26 -15 43 -31 67 -78 203 -80 231 -1 25 -6 30
-32 32 -27 2 -270 88 -282 100 -10 10 -6 76 6 85 7 7 13 9 13 5 0 -4 15 1 33
11 17 9 37 18 42 19 6 1 46 16 91 32 44 17 91 32 104 34 17 2 25 10 26 28 1
23 75 233 95 271 5 10 21 16 47 16 l39 0 51 -136z"/>
<path d="M522 967 c-13 -34 -36 -96 -51 -137 -15 -41 -58 -156 -95 -255 -78
-209 -129 -347 -158 -425 -11 -30 -24 -64 -29 -75 -5 -11 -13 -32 -18 -47
l-10 -27 548 0 549 0 80 237 c43 130 100 300 125 377 26 77 67 200 92 273 25
74 45 136 45 138 0 2 -237 4 -527 4 l-528 0 -23 -63z"/>
<path d="M3412 1018 c3 -7 26 -78 53 -158 26 -80 62 -185 79 -235 18 -49 72
-210 121 -357 l89 -268 548 1 c301 0 548 2 548 5 0 2 -7 21 -16 42 -17 39 -44
111 -112 297 -22 61 -51 139 -65 175 -14 36 -39 103 -57 150 -17 47 -35 94
-39 105 -5 11 -18 47 -31 80 -12 33 -26 69 -30 80 -5 11 -14 37 -21 58 l-13
37 -529 0 c-419 0 -528 -3 -525 -12z"/>
</g>
</svg>
