<?xml version="1.0" encoding="iso-8859-1"?>
<!-- Generator: Adobe Illustrator 19.0.0, SVG Export Plug-In . SVG Version: 6.00 Build 0)  -->
<svg version="1.1" id="Capa_1" xmlns="http://www.w3.org/2000/svg" xmlns:xlink="http://www.w3.org/1999/xlink" x="0px" y="0px"
	 viewBox="-49 141 512 512" style="enable-background:new -49 141 512 512;" xml:space="preserve">
<circle style="fill:#FFFFFF;" cx="207" cy="525" r="11.636"/>
<path style="fill:#FFFFFF;" d="M125.545,571.545c0-6.435-5.213-11.636-11.636-11.636h-128c-6.412,0-11.636-5.213-11.636-11.636
	V245.727c0-6.423,5.225-11.636,11.636-11.636h46.545c6.423,0,11.636-5.201,11.636-11.636s-5.213-11.636-11.636-11.636h-46.545
	c-19.247,0-34.909,15.663-34.909,34.909v302.545c0,19.247,15.663,34.909,34.909,34.909h128
	C120.332,583.182,125.545,577.98,125.545,571.545z"/>
<path style="fill:#FFFFFF;" d="M416.455,478.455c0-6.435-5.213-11.636-11.636-11.636H9.182c-6.423,0-11.636,5.201-11.636,11.636
	s5.213,11.636,11.636,11.636h395.636C411.241,490.091,416.455,484.889,416.455,478.455z"/>
<path style="fill:#FFFFFF;" d="M428.091,210.818h-46.545c-6.423,0-11.636,5.201-11.636,11.636s5.213,11.636,11.636,11.636h46.545
	c6.412,0,11.636,5.213,11.636,11.636v302.545c0,6.423-5.225,11.636-11.636,11.636H160.455c-6.423,0-11.636,5.201-11.636,11.636
	v46.545c0,6.423-5.225,11.636-11.636,11.636h-11.636c-6.423,0-11.636,5.201-11.636,11.636S119.122,653,125.545,653h162.909
	c6.423,0,11.636-5.201,11.636-11.636s-5.213-11.636-11.636-11.636h-11.636c-6.412,0-11.636-5.213-11.636-11.636v-34.909h162.909
	c19.247,0,34.909-15.663,34.909-34.909V245.727C463,226.481,447.337,210.818,428.091,210.818z M169.95,629.727
	c1.303-3.654,2.141-7.54,2.141-11.636v-34.909h69.818v34.909c0,4.096,0.838,7.983,2.141,11.636H169.95z"/>
<path style="fill:#FFFFFF;" d="M79,443.813c6.423,0,11.636-5.201,11.636-11.636V266.021c0-10.915,3.06-21.574,8.844-30.825
	l29.603-47.372h16.186l29.603,47.372c2.129,3.409,3.77,7.063,5.143,10.81h-66.106c-6.423,0-11.636,5.201-11.636,11.636
	c0,6.435,5.213,11.636,11.636,11.636h69.818v162.909c0,6.435,5.213,11.636,11.636,11.636c6.423,0,11.636-5.201,11.636-11.636
	V266.021c0-15.29-4.282-30.22-12.381-43.171l-47.569-76.113c-4.212-7.645-15.43-7.645-19.735,0L79.756,222.85
	c-8.111,12.951-12.393,27.869-12.393,43.171v166.156C67.364,438.612,72.577,443.813,79,443.813z"/>
<path style="fill:#FFFFFF;" d="M148.818,431.909v-128c0-6.435-5.213-11.636-11.636-11.636s-11.636,5.201-11.636,11.636v128
	c0,6.435,5.213,11.636,11.636,11.636S148.818,438.344,148.818,431.909z"/>
<path style="fill:#FFFFFF;" d="M335,443.813c6.423,0,11.636-5.201,11.636-11.636v-23.273c0-32.14-5.155-63.884-15.313-94.371
	c-2.025-6.086-8.588-9.391-14.72-7.354c-6.097,2.025-9.391,8.611-7.354,14.72c9.367,28.102,14.115,57.379,14.115,87.005v23.273
	C323.364,438.612,328.577,443.813,335,443.813z"/>
<path style="fill:#FFFFFF;" d="M241.909,443.813c6.423,0,11.636-5.201,11.636-11.636v-23.273c0-3.898,0.303-7.761,0.465-11.636
	h34.444c6.423,0,11.636-5.201,11.636-11.636s-5.213-11.636-11.636-11.636h-32.477c2.257-17.664,6.016-35.107,11.683-52.108
	l5.9-17.711h14.895c32.081,0,58.182-24.006,58.182-53.527c0-37.655-44.183-97.687-48.826-104.669c-4.41-6.644-14.324-6.644-18.7,0
	c-4.631,7.005-48.838,67.014-48.838,104.669c0,3.037,0.279,6.086,0.838,9.088c1.175,6.319,7.215,10.519,13.568,9.332
	c6.319-1.175,10.496-7.238,9.321-13.556c-0.303-1.583-0.454-3.2-0.454-4.864c0-20.34,20.433-55.587,34.909-77.405
	c14.476,21.807,34.909,57.03,34.909,77.405c0,16.687-15.663,30.255-34.909,30.255h-23.273c-5.015,0-9.449,3.2-11.043,7.959
	l-8.553,25.67c-10.159,30.487-15.313,62.231-15.313,94.371v23.273C230.273,438.612,235.486,443.813,241.909,443.813z"/>
</svg>
