<?xml version="1.0" encoding="iso-8859-1"?>
<!-- Generator: Adobe Illustrator 19.0.0, SVG Export Plug-In . SVG Version: 6.00 Build 0)  -->
<svg version="1.1" id="Layer_1" xmlns="http://www.w3.org/2000/svg" xmlns:xlink="http://www.w3.org/1999/xlink" x="0px" y="0px"
	 viewBox="0 0 200 100" style="enable-background:new 0 0 200 100;" xml:space="preserve">
<g id="XMLID_9_">
	<path id="XMLID_17_" style="fill:#FFFFFF;" d="M21.23,57.689c-5.702,0-11.243-1.842-14.841-3.688l-2.722,11.06
		c3.336,1.842,10.019,3.598,16.773,3.598c16.264,0,23.898-8.424,23.898-18.357c0-8.334-4.927-13.789-15.369-17.653
		c-7.649-2.909-10.985-4.56-10.985-8.349c0-3.07,2.808-5.706,8.615-5.706c5.792,0,10.019,1.67,12.389,2.808l2.98-10.805
		c-3.508-1.58-8.435-2.984-15.107-2.984c-13.965,0-22.404,7.735-22.404,17.829c0,8.611,6.421,14.051,16.249,17.488
		c7.121,2.546,9.929,4.654,9.929,8.338C30.635,55.144,27.389,57.689,21.23,57.689L21.23,57.689z M21.23,57.689"/>
	<path id="XMLID_14_" style="fill:#FFFFFF;" d="M91.154,56.81H66.832V42.758h21.779V31.859H66.832V19.56h23.093V8.579H53.391V67.78
		h37.762V56.81z M91.154,56.81"/>
	<path id="XMLID_10_" style="fill:#FFFFFF;" d="M136.434,72.284c8.308,0,15.927-2.995,21.865-7.956l11.786,11.015
		c-0.015,1.213,0.423,2.441,1.389,3.332l17.301,16.163c0.865,0.805,1.962,1.213,3.074,1.213c1.198,0,2.396-0.483,3.276-1.434
		c1.696-1.812,1.591-4.665-0.221-6.346l-17.301-16.163c-0.966-0.891-2.209-1.258-3.437-1.153l-11.625-10.854
		c5.002-5.949,8.027-13.598,8.027-21.966C170.568,19.313,155.255,4,136.434,4c-18.821,0-34.135,15.313-34.135,34.134
		C102.299,56.959,117.613,72.284,136.434,72.284L136.434,72.284z M136.434,12.978c13.864,0,25.156,11.292,25.156,25.156
		c0,13.879-11.292,25.156-25.156,25.156c-13.864,0-25.156-11.292-25.156-25.156C111.278,24.27,122.57,12.978,136.434,12.978
		L136.434,12.978z M136.434,12.978"/>
</g>
<g id="XMLID_8_">
</g>
<g id="XMLID_11_">
</g>
<g id="XMLID_12_">
</g>
<g id="XMLID_13_">
</g>
<g id="XMLID_15_">
</g>
<g id="XMLID_16_">
</g>
</svg>
