<?xml version="1.0" encoding="iso-8859-1"?>
<!-- Generator: Adobe Illustrator 19.0.0, SVG Export Plug-In . SVG Version: 6.00 Build 0)  -->
<svg version="1.1" id="Layer_1" xmlns="http://www.w3.org/2000/svg" xmlns:xlink="http://www.w3.org/1999/xlink" x="0px" y="0px"
	 viewBox="-49 141 512 512" style="enable-background:new -49 141 512 512;" xml:space="preserve">
<path style="fill:#FFFFFF;" d="M423,405V229c0-22.056-17.944-40-40-40H31c-22.056,0-40,17.944-40,40v120c-13.232,0-24,10.768-24,24
	v240c0,13.232,10.768,24,24,24h176c13.232,0,24-10.768,24-24h67.048c7.544,0,14.496-3.44,19.072-9.432s6.064-13.608,4.08-20.88
	L265.472,525H311v88c0,13.232,10.768,24,24,24h88c13.232,0,24-10.768,24-24V429C447,415.768,436.232,405,423,405z M431,429v16H327
	v-16c0-4.408,3.592-8,8-8h88C427.408,421,431,424.592,431,429z M327,461h104v120H327V461z M7,229c0-13.232,10.768-24,24-24h352
	c13.232,0,24,10.768,24,24v176h-72c-13.232,0-24,10.768-24,24v16H191v-72c0-13.232-10.768-24-24-24H7V229z M175,581H-17V405h192V581
	z M-9,365h176c4.408,0,8,3.592,8,8v16H-17v-16C-17,368.592-13.408,365-9,365z M167,621H-9c-4.408,0-8-3.592-8-8v-16h192v16
	C175,617.408,171.408,621,167,621z M264.408,593.856c-1.528,2-3.84,3.144-6.36,3.144H191v-16h73.16l1.608,5.896
	C266.432,589.32,265.936,591.856,264.408,593.856z M259.8,565H191v-40h57.888L259.8,565z M191,509v-48h120v48H191z M423,621h-88
	c-4.408,0-8-3.592-8-8v-16h104v16C431,617.408,427.408,621,423,621z"/>
</svg>
