<?xml version="1.0" encoding="utf-8"?>
<!-- Generator: Adobe Illustrator 19.0.0, SVG Export Plug-In . SVG Version: 6.00 Build 0)  -->
<svg version="1.1" id="Layer_1" xmlns="http://www.w3.org/2000/svg" xmlns:xlink="http://www.w3.org/1999/xlink" x="0px" y="0px"
	 viewBox="0 0 612 792" style="enable-background:new 0 0 612 792;" xml:space="preserve">
<style type="text/css">
	.st0{fill:#03A9F4;}
	.st1{fill:#FFFFFF;}
</style>
<g id="XMLID_7_">
	<polygon id="XMLID_5_" class="st0" points="0,209.7 306.1,33.1 612,209.7 612,563 306.1,739.8 0,563 	"/>
	<path id="XMLID_8_" class="st1" d="M201.9,229.2h221.9c21.1,0,38.3,17.2,38.3,38.3v221.9c0,21.1-17.2,38.3-38.3,38.3H201.9
		c-21.1,0-38.4-17.2-38.4-38.3V267.5C163.6,246.4,180.8,229.2,201.9,229.2z M381.1,262.3c-7.4,0-13.4,6-13.4,13.5V308
		c0,7.4,6,13.4,13.4,13.4h33.8c7.4,0,13.4-6,13.4-13.4v-32.1c0-7.4-6-13.5-13.4-13.5H381.1z M428.4,355.4h-26.3
		c2.5,8.2,3.8,16.7,3.8,25.6c0,49.6-41.6,90-92.8,90s-92.8-40.2-92.8-90c0-8.9,1.3-17.5,3.9-25.6h-27.4v126.1
		c0,6.5,5.3,11.9,11.9,11.9h208c6.5,0,11.9-5.3,11.9-11.9V355.4z M313.2,319.7c-33.1,0-60,26-60,58.1c0,32,26.8,58.1,60,58.1
		s60-26,60-58.1C373.1,345.7,346.3,319.7,313.2,319.7z"/>
</g>
</svg>
