<?xml version="1.0" encoding="utf-8"?>
<!-- Generator: Adobe Illustrator 19.0.0, SVG Export Plug-In . SVG Version: 6.00 Build 0)  -->
<svg version="1.1" id="Layer_1" xmlns="http://www.w3.org/2000/svg" xmlns:xlink="http://www.w3.org/1999/xlink" x="0px" y="0px"
	 viewBox="0 0 612 792" style="enable-background:new 0 0 612 792;" xml:space="preserve">
<style type="text/css">
	.st0{fill:#03A9F4;}
	.st1{fill:#FFFFFF;}
</style>
<g id="XMLID_7_">
	<polygon id="XMLID_5_" class="st0" points="0,208.1 306.1,31.5 612,208.1 612,561.4 306.1,738.1 0,561.4 	"/>
</g>
<path id="XMLID_3_" class="st1" d="M455.8,291.8c-11,4.9-22.9,8.2-35.3,9.7c12.7-7.6,22.5-19.6,27-34c-11.9,7-25,12.2-39,14.9
	c-11.2-12-27.2-19.4-44.9-19.4c-33.9,0-61.5,27.5-61.5,61.5c0,4.8,0.5,9.5,1.6,14c-51.1-2.6-96.4-27-126.7-64.2
	c-5.3,9.1-8.3,19.6-8.3,30.9c0,21.3,10.8,40.1,27.3,51.2c-10.1-0.3-19.5-3.1-27.8-7.7v0.8c0,29.8,21.2,54.6,49.3,60.3
	c-5.2,1.4-10.6,2.2-16.2,2.2c-4,0-7.8-0.4-11.6-1.1c7.8,24.4,30.5,42.2,57.4,42.7c-21,16.5-47.5,26.3-76.3,26.3
	c-5,0-9.8-0.3-14.7-0.9c27.2,17.4,59.5,27.6,94.2,27.6c113.1,0,174.9-93.7,174.9-174.9c0-2.7-0.1-5.3-0.2-8
	C437.1,314.9,447.6,304.1,455.8,291.8z"/>
</svg>
