<?xml version="1.0" encoding="utf-8"?>
<!-- Generator: Adobe Illustrator 19.0.0, SVG Export Plug-In . SVG Version: 6.00 Build 0)  -->
<svg version="1.1" id="Layer_1" xmlns="http://www.w3.org/2000/svg" xmlns:xlink="http://www.w3.org/1999/xlink" x="0px" y="0px"
	 viewBox="0 0 612 792" style="enable-background:new 0 0 612 792;" xml:space="preserve">
<style type="text/css">
	.st0{display:none;}
	.st1{font-family:'Roboto-Bold';}
	.st2{font-size:94px;}
	.st3{display:none;fill:#19A1C8;}
	.st4{fill:#FFFFFF;}
</style>
<text id="XMLID_1_" transform="matrix(1 0 0 1 233 389)" class="st0 st1 st2">A</text>
<rect id="XMLID_2_" x="261.3" y="357.9" class="st3" width="7.6" height="23.6"/>
<g id="XMLID_3_">
	<g id="XMLID_18_">
		<polygon id="XMLID_19_" class="st4" points="222.9,419.1 285.1,231.8 347.9,419.1 450.3,419.1 332.8,105.3 237.3,105.3 
			120.5,419.1 		"/>
		<g id="XMLID_5_">
			<polygon id="XMLID_6_" class="st4" points="195,502.6 89.4,502.6 51,605.7 160.6,605.7 195,502.6 			"/>
			<polygon id="XMLID_8_" class="st4" points="481.5,502.6 376.2,502.6 376.2,504 410.5,605.7 520.1,605.7 			"/>
		</g>
	</g>
	<path id="XMLID_11_" class="st4" d="M327.3,429.2h-10v-10h0l-22.6-60.3h-18.4l-22.5,60.3v10h-10.1v0l-60.3,22.6v18.4l60.3,22.4v0
		h10.1v10.1h0l22.6,60.3h18.4l22.4-60.3h0v-10.1h10v0l60.3-22.6v-18.4L327.3,429.2z M331.6,465l-27.2,10.2v0h-4.5v4.6h0l-10.1,27.2
		h-8.3l-10.2-27.2h0v-4.6h-4.6v0L239.5,465v-8.3l27.2-10.2v0h4.6V442l10.1-27.2h8.3l10.2,27.2h0v4.5h4.5l27.2,10.1V465z"/>
</g>
</svg>
