<?xml version="1.0" encoding="utf-8"?>
<!-- Generator: Adobe Illustrator 19.0.0, SVG Export Plug-In . SVG Version: 6.00 Build 0)  -->
<svg version="1.1" id="Layer_1" xmlns="http://www.w3.org/2000/svg" xmlns:xlink="http://www.w3.org/1999/xlink" x="0px" y="0px"
	 viewBox="0 0 612 792" style="enable-background:new 0 0 612 792;" xml:space="preserve">
<style type="text/css">
	.st0{fill:none;stroke:#FFFFFF;stroke-width:7;stroke-miterlimit:10;}
	.st1{fill:#FFFFFF;}
</style>
<polygon id="XMLID_1_" class="st0" points="4.9,246.3 307,71.9 609.1,246.3 609.1,595.2 307,769.6 4.9,595.2 "/>
<g id="XMLID_3_">
	<g id="XMLID_18_">
		<polygon id="XMLID_19_" class="st1" points="261,455.5 306.7,318 352.8,455.5 427.9,455.5 341.7,225.1 271.6,225.1 185.8,455.5 		
			"/>
		<g id="XMLID_5_">
			<polygon id="XMLID_6_" class="st1" points="240.5,516.8 163,516.8 134.8,592.4 215.3,592.4 			"/>
			<polygon id="XMLID_8_" class="st1" points="450.8,516.8 373.5,516.8 373.5,517.8 398.7,592.4 479.2,592.4 			"/>
		</g>
	</g>
	<path id="XMLID_11_" class="st1" d="M337.7,462.9h-7.3v-7.3l0,0l-16.6-44.3h-13.5l-16.5,44.3v7.3h-7.4l0,0L232,479.5V493l44.3,16.4
		l0,0h7.4v7.4l0,0l16.6,44.3h13.5l16.4-44.3l0,0v-7.4h7.3l0,0l44.3-16.6v-13.5L337.7,462.9z M340.8,489.1l-20,7.5l0,0h-3.3v3.4l0,0
		l-7.4,20H304l-7.5-20l0,0v-3.4h-3.4l0,0l-20-7.5v-6.1l20-7.5l0,0h3.4v-3.3l7.4-20h6.1l7.5,20l0,0v3.3h3.3l20,7.4V489.1L340.8,489.1
		z"/>
</g>
</svg>
